HIERARCHY
ROOT Hips
{
	OFFSET 0.000000 0.000000 0.000000 
	CHANNELS 6 Xposition Yposition Zposition Yrotation Zrotation Xrotation 
	JOINT Lumbar
	{
		OFFSET 0.000000 0.000000 0.000000 
		CHANNELS 3 Zrotation Xrotation Yrotation
		JOINT Neck
		{
			OFFSET 0.000000 0.445665 0.000000 
			CHANNELS 3 Zrotation Xrotation Yrotation
			End Site
			{
				OFFSET 0.000000 0.227535 0.000000 
			}
		}
		JOINT RightShoulder
		{
			OFFSET 0.019635 0.377685 0.194865 
			CHANNELS 3 Zrotation Xrotation Yrotation
			JOINT RightElbow
			{
				OFFSET 0.000000 -0.243375 0.000000 
				CHANNELS 2 Zrotation Yrotation
				JOINT RightWrist
				{
					OFFSET 0.000000 -0.264825 0.000000 
					CHANNELS 2 Zrotation Xrotation
					End Site
					{
						OFFSET 0.006600 -0.176220 0.000990 
					}
				}
			}
		}
		JOINT LeftShoulder
		{
			OFFSET 0.019635 0.377685 -0.194865 
			CHANNELS 3 Zrotation Xrotation Yrotation
			JOINT LeftElbow
			{
				OFFSET 0.000000 -0.243375 0.000000 
				CHANNELS 2 Zrotation Yrotation
				JOINT LeftWrist
				{
					OFFSET 0.000000 -0.264825 0.000000 
					CHANNELS 2 Zrotation Xrotation
					End Site
					{
						OFFSET 0.006600 -0.176220 -0.000990 
					}
				}
			}
		}
	}
	JOINT RightHip
	{
		OFFSET 0.052140 -0.069960 0.075570 
		CHANNELS 3 Zrotation Xrotation Yrotation
		JOINT RightKnee
		{
			OFFSET 0.000000 -0.402270 0.000000 
			CHANNELS 1 Zrotation
			JOINT RightAnkle
			{
				OFFSET 0.000000 -0.404085 0.000000 
				CHANNELS 3 Zrotation Xrotation Yrotation
				End Site
				{
					OFFSET 0.204105 -0.089430 0.008415 
				}
			}
		}
	}
	JOINT LeftHip
	{
		OFFSET 0.052140 -0.069960 -0.075570 
		CHANNELS 3 Zrotation Xrotation Yrotation
		JOINT LeftKnee
		{
			OFFSET 0.000000 -0.402270 0.000000 
			CHANNELS 1 Zrotation
			JOINT LeftAnkle
			{
				OFFSET 0.000000 -0.404085 0.000000 
				CHANNELS 3 Zrotation Xrotation Yrotation
				End Site
				{
					OFFSET 0.204105 -0.089430 -0.008415 
				}
			}
		}
	}
}
MOTION
Frames: 25
Frame Time: 0.02
0.00015 8e-05 -4e-05 175.23885 -44.80521 1.29372 57.46716 -0.14817 0.41228 -10.88273 -0.61049 -1.19987 133.14792 -84.92923 -66.21793 9.20082 72.62376 1.43738 -6.3786 166.37102 81.97614 59.61182 8.05295 -69.52802 1.21981 9.2155 49.60856 -1.17329 -9.40384 -19.28975 -7.74718 -3.96204 -4.21768 53.84793 1.78638 7.5562 -24.56727 -8.10199 3.73525 4.15426
9e-05 7e-05 -0.00012 175.31188 -44.80191 1.30924 57.46936 -0.15408 0.39155 -10.9246 -0.60242 -1.20023 133.45446 -84.92627 -66.01825 9.19019 72.59571 1.45985 -6.3487 166.37257 81.94864 60.07075 8.02888 -69.46087 1.28815 9.15348 49.58886 -1.20865 -9.60185 -19.2849 -7.73313 -3.95142 -4.21163 53.83783 1.83928 7.81888 -24.56724 -8.08145 3.71439 4.13878
2e-05 6e-05 -0.00021 175.38473 -44.79859 1.32473 57.47154 -0.15996 0.3709 -10.96637 -0.5944 -1.20059 133.76015 -84.92334 -65.81908 9.17957 72.56775 1.48225 -6.31888 166.37412 81.92127 60.52874 8.0048 -69.39386 1.35636 9.09159 49.56918 -1.24395 -9.79945 -19.28005 -7.71912 -3.94082 -4.2056 53.82771 1.89211 8.0812 -24.5672 -8.06093 3.69356 4.12333
-5e-05 5e-05 -0.00029 175.45754 -44.7953 1.3402 57.47372 -0.16585 0.35024 -11.00812 -0.58636 -1.20096 134.06582 -84.92039 -65.61995 9.16897 72.53978 1.50465 -6.28907 166.37567 81.89386 60.98634 7.98078 -69.3269 1.4245 9.02974 49.54954 -1.27921 -9.99688 -19.2752 -7.70511 -3.93023 -4.19957 53.81763 1.94487 8.34315 -24.56717 -8.04044 3.67276 4.1079
-0.00012 4e-05 -0.00037 175.53051 -44.79202 1.3557 57.47592 -0.17176 0.32949 -11.04994 -0.57828 -1.20132 134.37214 -84.91743 -65.42048 9.15836 72.51173 1.5271 -6.25915 166.37722 81.86634 61.44468 7.9568 -69.25984 1.49274 8.9678 49.52989 -1.31452 -10.19464 -19.27036 -7.69107 -3.91962 -4.19353 53.80758 1.99766 8.60527 -24.56713 -8.01994 3.65196 4.09245
-0.00018 3e-05 -0.00046 175.60309 -44.78862 1.37117 57.47807 -0.17759 0.30907 -11.09162 -0.57038 -1.20167 134.67641 -84.91454 -65.22204 9.14774 72.48396 1.54941 -6.22957 166.37877 81.83928 61.90192 7.9325 -69.19297 1.5609 8.90603 49.51014 -1.34978 -10.39191 -19.2655 -7.67711 -3.90906 -4.18752 53.79731 2.05056 8.86797 -24.56709 -7.99938 3.63104 4.07699
-0.00025 2e-05 -0.00054 175.67638 -44.78548 1.38668 57.4803 -0.18357 0.288 -11.13354 -0.56212 -1.20205 134.98488 -84.9115 -65.02137 9.13715 72.45563 1.57198 -6.19935 166.38034 81.81127 62.36088 7.90887 -69.12575 1.62914 8.84396 49.49062 -1.38511 -10.58993 -19.26067 -7.66301 -3.89841 -4.18146 53.78749 2.10321 9.12928 -24.56705 -7.97897 3.61039 4.06156
-0.00032 1e-05 -0.00062 175.749 -44.7821 1.40215 57.48246 -0.18941 0.26754 -11.17523 -0.55419 -1.2024 135.28869 -84.90862 -64.82344 9.12653 72.42785 1.59429 -6.16971 166.38184 81.78422 62.81824 7.88464 -69.0589 1.6973 8.78218 49.4709 -1.42038 -10.7873 -19.25582 -7.64902 -3.88784 -4.17544 53.77727 2.15605 9.39173 -24.56702 -7.95843 3.5895 4.04611
-0.00038 0 -0.0007 175.82091 -44.77841 1.41758 57.48455 -0.1951 0.2478 -11.2167 -0.54669 -1.20273 135.59009 -84.90586 -64.62607 9.11586 72.40058 1.61641 -6.14078 166.38344 81.75804 63.27399 7.85958 -68.99228 1.76541 8.72068 49.45086 -1.45556 -10.98381 -19.25091 -7.63522 -3.87739 -4.16948 53.7665 2.2093 9.65634 -24.56699 -7.93765 3.56824 4.03059
-0.00045 -1e-05 -0.00079 175.89726 -44.77646 1.43329 57.48711 -0.20173 0.22381 -11.25961 -0.53678 -1.20321 135.91526 -84.90217 -64.41708 9.10546 72.36992 1.64001 -6.1078 166.38504 81.72594 63.74005 7.83899 -68.92367 1.83398 8.65733 49.43243 -1.49121 -11.18509 -19.24625 -7.62049 -3.8663 -4.16321 53.75869 2.26074 9.91086 -24.56692 -7.91802 3.54889 4.01537
-0.00052 -2e-05 -0.00087 175.96398 -44.77087 1.44837 57.48862 -0.20633 0.20889 -11.29938 -0.53193 -1.20338 136.18392 -84.90058 -64.23801 9.09452 72.34672 1.66023 -6.08335 166.38626 81.70692 64.18362 7.8092 -68.85968 1.90145 8.59806 49.41074 -1.5259 -11.37638 -19.24111 -7.60766 -3.85651 -4.15757 53.74477 2.31565 10.1851 -24.56695 -7.8961 3.52568 3.99959
-0.00059 -2e-05 -0.0009 176.00612 -44.75496 1.46202 57.48757 -0.20571 0.21809 -11.3312 -0.5412 -1.20266 136.34338 -84.90371 -64.10072 9.08173 72.34175 1.67298 -6.08252 166.38706 81.71953 64.57254 7.75195 -68.80581 1.96657 8.54851 49.37908 -1.55772 -11.53959 -19.23436 -7.60071 -3.85084 -4.15396 53.71279 2.38305 10.52698 -24.56719 -7.86673 3.49048 3.98154
-0.00065 -3e-05 -0.00093 176.03821 -44.73543 1.47498 57.48536 -0.203 0.23654 -11.35972 -0.55549 -1.20164 136.43419 -84.90908 -64.00328 9.06845 72.34473 1.68187 -6.09025 166.38568 81.74625 64.93849 7.68584 -68.75749 2.03024 8.50325 49.34432 -1.58863 -11.69288 -19.22718 -7.59557 -3.84637 -4.15094 53.6749 2.4534 10.88615 -24.56754 -7.83528 3.45169 3.96306
-0.00071 -4e-05 -0.00095 176.07376 -44.71778 1.48809 57.48351 -0.20102 0.25123 -11.38938 -0.56734 -1.2008 136.53088 -84.91417 -63.91092 9.05568 72.34548 1.69153 -6.09391 166.38703 81.76907 65.30918 7.62531 -68.70777 2.09439 8.45713 49.31165 -1.62015 -11.85117 -19.22036 -7.58918 -3.84096 -4.14744 53.64055 2.52047 11.22857 -24.56789 -7.80554 3.41546 3.94523
-0.00079 -5e-05 -0.00099 176.11412 -44.69922 1.50194 57.48251 -0.19995 0.26401 -11.4207 -0.57992 -1.19977 136.74843 -84.91639 -63.71109 9.04179 72.34025 1.70592 -6.09825 166.38794 81.78059 65.70012 7.5584 -68.65155 2.16014 8.4068 49.27613 -1.65086 -12.00745 -19.2128 -7.5846 -3.83722 -4.14482 53.60261 2.59574 11.60857 -24.56803 -7.77254 3.37528 3.92546
-0.00083 -6e-05 -0.001 176.14186 -44.68159 1.51403 57.47929 -0.19647 0.28304 -11.4476 -0.59212 -1.19907 136.68026 -84.92482 -63.75665 9.03001 72.34959 1.70884 -6.10334 166.38058 81.81988 66.04819 7.50243 -68.61241 2.22115 8.36577 49.2458 -1.683 -12.16544 -19.20674 -7.5767 -3.8303 -4.14053 53.57069 2.65464 11.91439 -24.56865 -7.74587 3.34249 3.90965
-0.00077 -8e-05 -0.00096 176.13927 -44.66839 1.52194 57.47158 -0.18714 0.31627 -11.46441 -0.60257 -1.1994 135.97869 -84.95129 -64.36213 9.02419 72.39578 1.68268 -6.10754 166.39735 81.92448 66.24538 7.48077 -68.60143 2.27202 8.35171 49.23067 -1.71964 -12.33153 -19.20456 -7.55881 -3.81411 -4.1314 53.5574 2.66741 12.01116 -24.57055 -7.73699 3.33072 3.90482
-0.00066 -0.0001 -0.00089 176.12396 -44.65605 1.52803 57.46129 -0.17542 0.35559 -11.47642 -0.61236 -1.20007 134.95726 -84.98294 -65.23008 9.0199 72.45711 1.64191 -6.11259 166.37807 82.05781 66.40901 7.46987 -68.61174 2.31321 8.3452 49.2209 -1.75769 -12.4994 -19.20402 -7.53758 -3.79473 -4.12061 53.55031 2.66365 12.0327 -24.57296 -7.73459 3.32655 3.90402
-0.00057 -0.00012 -0.00084 176.11307 -44.64269 1.53457 57.45144 -0.16457 0.39267 -11.49009 -0.62214 -1.20055 134.00243 -85.01217 -66.05277 9.01567 72.51182 1.61036 -6.11757 166.36914 82.18348 66.61089 7.45306 -68.62256 2.36279 8.33523 49.20854 -1.79486 -12.66594 -19.20294 -7.51812 -3.77696 -4.11066 53.53996 2.66763 12.08864 -24.57516 -7.72936 3.31906 3.90145
-0.0005 -0.00014 -0.00079 176.10745 -44.63191 1.54258 57.44516 -0.15445 0.42794 -11.5068 -0.63345 -1.20113 133.41377 -85.04467 -66.57769 9.01075 72.56369 1.57957 -6.12064 166.46414 82.28776 66.70801 7.44109 -68.58643 2.41383 8.33055 49.19652 -1.83298 -12.83475 -19.20082 -7.49765 -3.75854 -4.10033 53.53111 2.67077 12.1442 -24.5772 -7.72358 3.31086 3.89861
-0.00037 -0.00016 -0.00072 176.08812 -44.61593 1.54721 57.43018 -0.14241 0.46819 -11.51487 -0.64132 -1.20161 131.94213 -85.06792 -67.76789 9.0045 72.6275 1.52903 -6.12887 166.23565 82.44212 67.02425 7.42064 -68.65827 2.43653 8.3103 49.18536 -1.8695 -12.99887 -19.20142 -7.47848 -3.7407 -4.09041 53.52088 2.67165 12.18257 -24.57977 -7.72051 3.30598 3.89729
-7e-05 -0.0002 -0.0006 176.03275 -44.58625 1.54203 57.3975 -0.12454 0.52174 -11.51032 -0.63994 -1.20169 128.51495 -85.09243 -70.87506 9.02204 72.70432 1.559 -6.14192 165.98925 82.73283 67.87605 7.38377 -68.97335 2.58964 8.30084 49.17343 -1.90104 -13.15367 -19.2078 -7.4636 -3.72518 -4.08192 53.50395 2.67082 12.19079 -24.58316 -7.7234 3.30861 3.89927
0.0003 -0.00024 -0.00047 175.96433 -44.55122 1.53366 57.35503 -0.10507 0.57987 -11.49503 -0.63503 -1.20168 124.14763 -85.10006 -74.61566 9.03371 72.79947 1.54881 -6.16185 165.2738 83.06896 68.96093 7.33655 -69.40195 2.68259 8.26648 49.16275 -1.93094 -13.30274 -19.21715 -7.45021 -3.7104 -4.07393 53.48587 2.6682 12.18439 -24.58721 -7.72879 3.3143 3.90263
0.00066 -0.00028 -0.00034 175.90274 -44.518 1.52734 57.31338 -0.08704 0.63518 -11.47854 -0.63171 -1.20172 119.92985 -85.09968 -77.97144 9.02888 72.89191 1.46605 -6.1846 164.18316 83.38465 69.99425 7.28739 -69.81578 2.65955 8.20515 49.15247 -1.9618 -13.45217 -19.22592 -7.43617 -3.69527 -4.06576 53.46902 2.66605 12.18533 -24.59124 -7.733 3.31851 3.9053
0.00094 -0.00031 -0.00022 175.83679 -44.48716 1.51844 57.28719 -0.0658 0.69383 -11.489 -0.62862 -1.20169 116.82152 -85.17443 -81.74541 9.10204 72.94531 1.75081 -6.18214 165.50511 83.7127 70.81005 7.26536 -70.08992 3.21451 8.29974 49.13749 -1.99197 -13.61218 -19.23125 -7.42176 -3.67994 -4.05726 53.4487 2.66472 12.1808 -24.59392 -7.73762 3.32338 3.90839
